<?xml version="1.0" standalone="no"?>
<!DOCTYPE svg PUBLIC "-//W3C//DTD SVG 20010904//EN"
 "http://www.w3.org/TR/2001/REC-SVG-20010904/DTD/svg10.dtd">
<svg version="1.0" xmlns="http://www.w3.org/2000/svg"
 width="256.000000pt" height="256.000000pt" viewBox="0 0 256.000000 256.000000"
 preserveAspectRatio="xMidYMid meet">
<metadata>
Created by potrace 1.15, written by Peter Selinger 2001-2017
</metadata>
<g transform="translate(0.000000,256.000000) scale(0.100000,-0.100000)"
fill="#000000" stroke="none">
<path d="M2080 2222 c0 -5 10 -17 22 -28 73 -65 197 -272 251 -419 89 -243 50
-549 -114 -895 -113 -238 -299 -466 -431 -528 -71 -34 -130 -48 -238 -57 -108
-9 -120 -13 -131 -41 -7 -21 -5 -33 10 -58 72 -116 267 -100 499 40 198 121
350 326 463 631 61 165 74 243 74 443 -1 186 -13 273 -59 408 -53 154 -162
340 -260 442 -49 51 -86 78 -86 62z m366 -1144 c-11 -72 -75 -247 -132 -362
-126 -255 -259 -403 -449 -500 -80 -41 -191 -69 -256 -64 -39 3 -44 6 -44 28
0 21 5 25 30 28 125 10 244 51 347 119 177 116 383 418 470 690 18 56 35 103
37 103 2 0 1 -19 -3 -42z"/>
<path d="M637 2083 c-49 -111 -62 -201 -47 -315 25 -178 126 -337 285 -445 86
-58 127 -77 273 -127 157 -54 193 -72 255 -126 73 -64 90 -106 85 -204 -5 -85
-7 -91 -124 -361 -44 -102 -48 -116 -48 -196 -1 -82 1 -89 30 -130 21 -29 52
-55 90 -74 53 -28 65 -30 163 -30 85 0 119 5 171 24 191 68 403 255 551 486
59 92 61 95 56 95 -2 0 -26 -33 -52 -73 -208 -313 -468 -497 -706 -499 -103
-1 -170 23 -225 77 -92 92 -85 178 37 447 67 150 93 246 84 312 -8 64 -43 125
-98 169 -57 47 -100 67 -257 122 -149 52 -226 91 -312 160 -112 88 -203 233
-228 363 -19 95 -9 233 23 312 33 80 29 90 -6 13z"/>
<path d="M640 1809 c0 -70 77 -245 147 -329 85 -103 179 -159 403 -235 149
-51 192 -73 263 -135 26 -23 51 -39 55 -35 14 13 3 96 -18 140 -33 68 -89 95
-324 160 -156 43 -230 81 -316 162 -57 54 -88 98 -192 268 l-18 30 0 -26z
m504 -490 c142 -36 272 -84 303 -111 23 -21 38 -63 28 -79 -4 -5 -22 4 -41 21
-46 40 -104 68 -259 125 -127 47 -225 90 -225 100 0 3 17 -2 37 -10 21 -9 91
-29 157 -46z"/>
<path d="M503 1515 c16 -54 18 -76 7 -115 -15 -55 -50 -107 -97 -145 -37 -29
-41 -30 -143 -30 -93 0 -105 -2 -104 -17 2 -27 -31 -5 -66 43 -40 56 -57 135
-41 201 15 66 8 73 -13 12 -33 -96 -16 -188 47 -260 57 -65 107 -88 192 -88
87 0 134 22 199 94 87 98 102 251 29 312 -14 11 -15 10 -10 -7z"/>
<path d="M1037 728 c32 -133 -2 -262 -88 -343 -98 -91 -226 -118 -359 -75 -71
23 -87 22 -77 -2 7 -19 79 -68 124 -84 22 -7 30 -13 18 -13 -34 -1 -118 44
-171 92 -70 63 -114 154 -121 250 -5 69 -3 86 33 197 3 8 -8 -7 -23 -35 -25
-46 -28 -59 -28 -160 0 -105 1 -113 34 -178 123 -245 452 -288 637 -83 30 33
52 66 50 73 -3 7 7 38 22 70 21 46 26 73 27 134 0 68 -4 83 -35 144 -46 90
-62 95 -43 13z"/>
</g>
</svg>
