 <svg version="1.0" xmlns="http://www.w3.org/2000/svg" width="700.000000pt" height="700.000000pt" viewBox="0 0 700.000000 700.000000" preserveAspectRatio="xMidYMid meet">
<metadata>
Created by potrace 1.12, written by Peter Selinger 2001-2015
</metadata>
<g transform="translate(0.000000,700.000000) scale(0.100000,-0.100000)" fill="#000000" stroke="none">
<path d="M3645 6890 c-155 -16 -266 -33 -395 -60 -213 -45 -234 -50 -252 -60
-10 -6 -22 -10 -28 -10 -18 0 -240 -90 -355 -144 -121 -57 -284 -162 -401
-257 -108 -88 -263 -257 -338 -368 -89 -132 -208 -367 -241 -477 -15 -49 -31
-100 -36 -114 -31 -85 -50 -432 -30 -555 44 -267 136 -508 273 -710 192 -285
438 -501 787 -689 146 -79 243 -116 601 -231 80 -25 154 -50 165 -55 11 -5 60
-25 110 -45 157 -64 319 -169 418 -272 76 -78 117 -147 158 -264 20 -56 23
-83 23 -219 0 -119 -4 -169 -18 -215 -79 -268 -106 -339 -214 -565 -240 -502
-318 -770 -277 -952 33 -151 83 -237 194 -340 157 -144 445 -220 716 -189 281
33 485 108 795 291 165 97 514 392 630 531 24 30 68 79 96 109 61 65 293 378
379 511 151 234 292 500 370 694 85 213 179 602 200 827 4 37 11 70 16 73 12
8 12 622 0 629 -5 4 -12 41 -16 84 -23 274 -133 723 -241 987 -81 197 -182
407 -250 517 -230 374 -437 624 -722 870 -204 177 -525 373 -777 476 -250 102
-494 161 -800 192 -103 11 -436 11 -540 0z"></path>
<path d="M675 4509 c-131 -14 -295 -93 -404 -195 -90 -83 -228 -331 -246 -441
-4 -24 -11 -43 -16 -43 -12 0 -12 -203 0 -215 5 -6 16 -39 25 -75 63 -249 265
-444 521 -503 113 -26 147 -29 232 -18 134 17 260 66 359 141 72 54 207 219
244 299 44 94 80 249 80 347 0 170 -72 353 -189 476 -163 173 -375 253 -606
227z"></path>
<path d="M1865 2591 c-138 -15 -300 -69 -415 -138 -86 -51 -222 -168 -279
-238 -62 -77 -135 -197 -195 -320 -99 -204 -129 -418 -91 -641 28 -158 93
-313 191 -451 72 -101 102 -132 199 -207 154 -120 282 -181 455 -216 146 -30
359 -25 504 14 319 83 571 309 735 657 98 208 133 446 96 641 -22 113 -76 273
-117 348 -74 133 -212 286 -338 372 -112 77 -262 140 -395 167 -71 14 -268 21
-350 12z"></path>
</g>
</svg>