<?xml version="1.0" standalone="no"?>
<!DOCTYPE svg PUBLIC "-//W3C//DTD SVG 20010904//EN"
 "http://www.w3.org/TR/2001/REC-SVG-20010904/DTD/svg10.dtd">
<svg version="1.0" xmlns="http://www.w3.org/2000/svg"
 width="225.000000pt" height="225.000000pt" viewBox="0 0 225.000000 225.000000"
 preserveAspectRatio="xMidYMid meet">
<metadata>
Created by potrace 1.15, written by Peter Selinger 2001-2017
</metadata>
<g transform="translate(0.000000,225.000000) scale(0.100000,-0.100000)"
fill="#000000" stroke="none">
<path d="M1125 2210 c-105 -15 -187 -40 -285 -87 -218 -105 -356 -329 -336
-545 15 -161 105 -310 251 -413 81 -57 141 -86 257 -123 169 -54 249 -105 287
-186 41 -84 22 -182 -77 -401 -80 -178 -87 -236 -38 -320 68 -116 274 -137
454 -46 252 127 497 447 578 756 23 86 27 121 28 255 1 216 -33 369 -125 554
-138 276 -377 475 -650 541 -78 19 -263 27 -344 15z"/>
<path d="M160 1434 c-130 -56 -194 -232 -127 -346 98 -167 322 -154 411 24 78
157 -31 339 -201 338 -26 -1 -64 -8 -83 -16z"/>
<path d="M582 829 c-112 -19 -201 -90 -263 -211 -30 -57 -33 -71 -34 -153 0
-77 4 -98 27 -147 32 -69 97 -136 163 -169 43 -21 64 -24 155 -24 97 0 109 2
158 29 70 39 127 102 165 184 28 59 32 77 32 152 -1 66 -6 96 -23 133 -69 153
-216 232 -380 206z"/>
</g>
</svg>
