 <svg version="1.0" xmlns="http://www.w3.org/2000/svg" width="700.000000pt" height="700.000000pt" viewBox="0 0 700.000000 700.000000" preserveAspectRatio="xMidYMid meet">
<metadata>
Created by potrace 1.12, written by Peter Selinger 2001-2015
</metadata>
<g transform="translate(0.000000,700.000000) scale(0.100000,-0.100000)" fill="#000000" stroke="none">
<path d="M0 5405 c0 -1036 3 -1595 10 -1595 10 0 16 21 24 88 9 89 154 341
239 420 67 60 173 127 237 147 30 10 72 24 93 32 59 21 268 17 342 -6 262 -83
440 -266 505 -521 39 -152 16 -352 -60 -515 -35 -75 -172 -240 -242 -294 -126
-95 -266 -141 -428 -141 -163 0 -284 38 -418 128 -140 96 -272 307 -272 437 0
26 -6 48 -15 55 -13 11 -15 -192 -15 -1814 l0 -1826 3500 0 3500 0 0 1601 c0
1422 -2 1600 -15 1589 -11 -9 -15 -35 -15 -109 0 -176 -92 -583 -186 -823
-205 -525 -666 -1190 -1076 -1556 -367 -326 -705 -511 -1068 -583 -168 -34
-386 -32 -522 4 -162 43 -252 91 -350 188 -101 101 -147 187 -174 323 -17 85
-17 94 1 200 29 176 108 390 267 726 112 236 170 387 220 574 32 119 32 342 1
441 -72 225 -269 409 -572 536 -53 22 -105 44 -116 49 -11 5 -85 30 -165 56
-237 75 -382 125 -436 150 -28 13 -53 24 -56 24 -3 0 -56 28 -119 61 -155 84
-304 185 -424 287 -118 102 -126 110 -227 231 -214 254 -338 522 -393 845 -26
152 -12 480 25 586 5 14 20 65 35 113 33 110 149 340 237 473 75 111 241 293
352 383 146 119 398 264 566 326 19 7 73 27 120 44 156 57 347 101 610 138
178 26 638 25 795 0 270 -44 403 -78 603 -151 69 -26 280 -124 362 -168 396
-215 809 -601 1077 -1008 42 -63 83 -126 93 -140 35 -53 134 -236 171 -318 22
-48 46 -100 54 -117 76 -162 165 -426 210 -630 15 -66 31 -133 35 -150 19 -66
42 -226 49 -338 4 -68 12 -122 19 -129 9 -9 12 355 12 1630 l0 1642 -3500 0
-3500 0 0 -1595z m2130 -2816 c232 -23 445 -124 618 -293 170 -165 257 -325
308 -564 65 -304 -2 -585 -215 -907 -119 -180 -337 -346 -541 -414 -219 -72
-519 -68 -725 10 -345 130 -598 424 -686 799 -18 75 -18 347 0 425 25 115 44
165 103 282 107 212 195 326 348 448 222 177 478 247 790 214z"></path>
</g>
</svg>